<?xml version="1.0" encoding="utf-8"?>
<!-- Generator: Adobe Illustrator 22.0.1, SVG Export Plug-In . SVG Version: 6.00 Build 0)  -->
<svg version="1.1" id="Layer_2" xmlns="http://www.w3.org/2000/svg" xmlns:xlink="http://www.w3.org/1999/xlink" x="0px" y="0px"
	 viewBox="0 0 128.8 119.2" style="enable-background:new 0 0 128.8 119.2;" xml:space="preserve">
<g>
	<path d="M57.9,58c-0.1,0.8-0.1,1.6-0.2,2.6c0,0,0,0.1-0.1,0.1c-0.4,0-2.4,0-3.6,0c-0.5,0-1,0.4-1,1v0c0,0.5,0.4,1,1,1l3.4,0
		c0,0,0.1,0,0.1,0.1c-0.1,1.5-0.1,2.5-0.2,3c0,0,0,0.1-0.1,0.1l-3.8,0c-0.5,0-1,0.4-1,1v0c0,0.5,0.4,1,1,1l3.7,0c0,0,0.1,0,0.1,0.1
		c0,1.1-0.1,2-0.1,2.7c0,2.2,0.4,3.6,1.2,4.4c0.8,0.8,2.4,1.2,4.7,1.2c4.4,0,6.7-1.6,6.7-4.9c0-0.4,0-0.9-0.1-1.4
		c-0.1-0.5-0.6-0.9-1.2-0.8l-0.2,0c-0.5,0.1-0.8,0.6-0.7,1.1c0,0.3,0.1,0.6,0.1,0.8c0,1-0.4,1.8-1.1,2.3C66,73.7,64.8,74,63.2,74
		c-1.6,0-2.6-0.2-3-0.7c-0.5-0.5-0.7-1.4-0.7-2.9c0-0.7,0-1.7,0.1-2.7c0,0,0-0.1,0.1-0.1l5.9,0c0.5,0,1-0.4,1-1l0,0c0-0.5-0.4-1-1-1
		l-5.8,0c0,0-0.1,0-0.1-0.1c0-0.5,0.1-1.5,0.2-3c0,0,0-0.1,0.1-0.1l7,0c0.5,0,1-0.4,1-1l0,0c0-0.5-0.4-1-1-1l-6.9,0
		c0,0-0.1,0-0.1-0.1c0-0.1,0-0.2,0-0.3C60,59.1,59.1,58,57.9,58C57.9,58,57.9,58,57.9,58L57.9,58z"/>
	<path d="M45.6,29.4c-0.8,0-1.4,0.2-1.8,0.6c-0.5,0.4-1.3,1.3-2.5,2.9c-1,1.3-2,2.5-2.9,3.6c-0.4,0.4-0.3,1.1,0.1,1.5l0,0
		c0.5,0.4,1.2,0.4,1.6-0.1c0.8-0.9,1.8-2.2,3.1-3.9c0.8-1,1.3-1.6,1.6-1.8c0.3-0.3,0.6-0.4,0.9-0.4c0.3,0,0.6,0.1,0.9,0.4
		c0.3,0.2,1,0.8,1.9,1.8c2.1,2,4.3,4.1,6.7,6.2c0.5,0.4,1.2,0.4,1.6-0.1l0.1-0.1c0.4-0.5,0.3-1.1-0.1-1.5c-2.1-1.9-4.1-3.7-6-5.6
		c-1.6-1.6-2.7-2.5-3.2-2.9C46.9,29.6,46.3,29.4,45.6,29.4z"/>
	<path d="M73.1,29.4c-0.8,0-1.4,0.2-1.8,0.6c-0.5,0.4-1.3,1.3-2.5,2.9c-1,1.3-2,2.5-2.9,3.6c-0.4,0.4-0.3,1.1,0.1,1.5l0,0
		c0.5,0.4,1.2,0.4,1.6-0.1c0.8-0.9,1.8-2.2,3.1-3.9c0.8-1,1.3-1.6,1.6-1.8c0.3-0.3,0.6-0.4,0.9-0.4c0.3,0,0.6,0.1,0.9,0.4
		c0.3,0.2,1,0.8,1.9,1.8c2.1,2,4.3,4.1,6.7,6.2c0.5,0.4,1.2,0.4,1.6-0.1l0.1-0.1c0.4-0.5,0.3-1.1-0.1-1.5c-2.1-1.9-4.1-3.7-6-5.6
		c-1.6-1.6-2.7-2.5-3.2-2.9C74.4,29.6,73.8,29.4,73.1,29.4L73.1,29.4z"/>
	<path d="M60.9,80c-0.8,0-1.4,0.2-1.8,0.6s-1.3,1.3-2.5,2.9c-1,1.3-2,2.5-2.9,3.6c-0.4,0.4-0.3,1.1,0.1,1.5l0,0
		c0.5,0.4,1.2,0.4,1.6-0.1c0.8-0.9,1.8-2.2,3.1-3.9c0.8-1,1.3-1.6,1.6-1.8c0.3-0.3,0.6-0.4,0.9-0.4c0.3,0,0.6,0.1,0.9,0.4
		c0.3,0.2,1,0.8,1.9,1.8c2.1,2,4.3,4.1,6.7,6.2c0.5,0.4,1.2,0.4,1.6-0.1l0.1-0.1c0.4-0.5,0.3-1.1-0.1-1.5c-2.1-1.9-4.1-3.7-6-5.6
		c-1.6-1.6-2.7-2.5-3.2-2.9C62.2,80.1,61.6,80,60.9,80L60.9,80z"/>
	<path d="M28.6,25.8c-0.1,1.3-0.2,2.6-0.2,4v31.3c0,20.3,16.5,37.2,36.8,36.7c19.2-0.4,34.6-15.8,35.1-34.9c0-0.6-0.5-1.1-1.1-1.1
		h-0.2c-0.6,0-1.1,0.5-1.1,1.1C97.5,80.7,83.2,95,65.3,95.4c-19,0.5-34.5-15.3-34.5-34.3l0-31.3c0-0.9,0-1.9,0.1-2.8
		c0.1-0.6-0.4-1.2-1.1-1.2H28.6L28.6,25.8z"/>
	<path d="M94.7,26.4l-0.2,0.1c-0.5,0.3-0.7,1-0.4,1.5l3.7,6.4c0.3,0.5,1,0.7,1.5,0.4l0.2-0.1c0.5-0.3,0.7-1,0.4-1.5l-3.7-6.4
		C95.9,26.3,95.2,26.1,94.7,26.4z"/>
	<path d="M89.8,29.2l-0.2,0.1c-0.5,0.3-0.7,1-0.4,1.5l3.7,6.4c0.3,0.5,1,0.7,1.5,0.4l0.2-0.1c0.5-0.3,0.7-1,0.4-1.5l-3.7-6.4
		C91,29.1,90.3,28.9,89.8,29.2z"/>
	<path d="M54.2,42c-1.6-1.5-3.5-2.3-5.9-2.3c-3,0-5.4,0.9-7.2,2.5c-1.8,1.7-2.8,3.9-2.8,6.6c0,1.8,0.5,3.4,1.3,4.7
		c0.9,1.3,1.9,1.9,3,1.9c0.7,0,1.3-0.2,1.8-0.6c0.6-0.4,1.1-1.1,1.7-2c0.6-1,1.1-2.4,1.5-4.2c0.5-1.8,0.8-4.1,1.2-6.8
		c0,0,0-0.1,0.1-0.1c1.6,0.1,2.9,0.8,3.9,1.8c1,1.1,1.6,2.4,1.6,4.1c0,1.8-0.4,3.3-1.3,4.3c-0.7,0.9-1.7,1.4-2.9,1.7
		c-0.5,0.1-0.8,0.6-0.7,1.1l0,0.2c0.1,0.5,0.6,0.8,1.1,0.7c1.6-0.3,3-1.1,4-2.3c1.2-1.5,1.9-3.4,1.9-5.8
		C56.6,45.4,55.8,43.5,54.2,42z M45.9,46.6c-0.3,1.4-0.6,2.5-0.8,3.3c-0.3,0.8-0.6,1.5-0.9,2c-0.3,0.5-0.6,0.9-0.8,1.1
		c-0.2,0.2-0.5,0.3-0.7,0.3c-0.5,0-1-0.4-1.5-1.3c-0.5-0.9-0.8-1.9-0.8-3.1c0-1.8,0.6-3.4,1.7-4.6c1.1-1.2,2.6-2,4.4-2.3
		c0,0,0.1,0,0.1,0.1C46.4,43.7,46.2,45.3,45.9,46.6z"/>
	<path d="M81.8,42c-1.6-1.5-3.5-2.3-5.9-2.3c-3,0-5.4,0.9-7.2,2.5c-1.8,1.7-2.8,3.9-2.8,6.6c0,1.8,0.5,3.4,1.4,4.7
		c0.9,1.3,1.9,1.9,3,1.9c0.7,0,1.3-0.2,1.8-0.6c0.6-0.4,1.1-1.1,1.7-2c0.5-1,1-2.4,1.5-4.2c0.4-1.8,0.8-4.1,1.2-6.8
		c0,0,0-0.1,0.1-0.1c1.6,0.1,2.9,0.8,3.9,1.8c1,1.1,1.6,2.4,1.6,4.1c0,1.8-0.4,3.3-1.3,4.3c-0.7,0.9-1.7,1.4-2.9,1.7
		c-0.5,0.1-0.8,0.6-0.7,1.1l0,0.2c0.1,0.5,0.6,0.8,1.1,0.7c1.6-0.3,3-1.1,4-2.3c1.2-1.5,1.8-3.4,1.8-5.8
		C84.1,45.4,83.3,43.5,81.8,42z M73.5,46.6c-0.3,1.4-0.6,2.5-0.8,3.3c-0.3,0.8-0.6,1.5-0.9,2c-0.3,0.5-0.6,0.9-0.8,1.1
		c-0.2,0.2-0.5,0.3-0.7,0.3c-0.5,0-1-0.4-1.5-1.3c-0.5-0.9-0.7-1.9-0.7-3.1c0-1.8,0.6-3.4,1.7-4.6c1.1-1.2,2.6-2,4.4-2.3
		c0,0,0.1,0,0.1,0.1C74,43.7,73.7,45.3,73.5,46.6z"/>
</g>
</svg>
